<svg xmlns="http://www.w3.org/2000/svg" xmlns:xlink="http://www.w3.org/1999/xlink" width="500" zoomAndPan="magnify" viewBox="0 0 375 374.999991" height="500" preserveAspectRatio="xMidYMid meet" version="1.0"><defs><g/></defs><rect x="-37.5" width="450" fill="#ffffff" y="-37.499999" height="449.999989" fill-opacity="1"/><rect x="-37.5" width="450" fill="#014d29" y="-37.499999" height="449.999989" fill-opacity="1"/><g fill="#ffffff" fill-opacity="1"><g transform="translate(101.604365, 187.17569)"><g><path d="M 0.449219 -45.105469 C 1.667969 -43.886719 2.03125 -42.351562 2.03125 -39.78125 L 2.03125 -5.320312 C 2.03125 -2.75 1.667969 -1.21875 0.449219 0 L 19.621094 0 C 28.460938 0 33.691406 -3.472656 33.691406 -16.867188 C 33.691406 -28.234375 28.054688 -45.105469 14.296875 -45.105469 Z M 17.363281 -42.53125 C 21.515625 -42.53125 21.875 -31.167969 21.875 -22.460938 C 21.875 -9.199219 20.523438 -2.300781 17.09375 -2.300781 C 14.570312 -2.300781 13.757812 -5.59375 13.757812 -13.53125 C 13.757812 -14.253906 13.757812 -21.832031 13.757812 -22.550781 C 13.757812 -23.273438 13.757812 -30.851562 13.757812 -31.574219 C 13.757812 -39.511719 14.570312 -42.53125 17.363281 -42.53125 Z M 17.363281 -42.53125 "/></g></g></g><g fill="#ffffff" fill-opacity="1"><g transform="translate(136.422103, 187.17569)"><g><path d="M 5.726562 -3.96875 C 8.796875 -0.855469 12.808594 0.675781 16.914062 0.675781 C 21.109375 0.675781 25.394531 -0.992188 28.6875 -4.328125 C 35.136719 -10.871094 35.316406 -21.242188 29.046875 -27.558594 C 25.980469 -30.671875 21.964844 -32.203125 17.859375 -32.203125 C 13.667969 -32.203125 9.382812 -30.535156 6.089844 -27.242188 C -0.40625 -20.703125 -0.542969 -10.328125 5.726562 -3.96875 Z M 15.199219 -29.8125 C 18.132812 -30.265625 21.46875 -24.3125 22.640625 -16.507812 C 23.816406 -8.570312 22.417969 -1.941406 19.53125 -1.488281 C 16.597656 -1.039062 13.261719 -6.945312 12.042969 -14.792969 C 10.824219 -22.6875 12.222656 -29.363281 15.199219 -29.8125 Z M 15.199219 -29.8125 "/></g></g></g><g fill="#ffffff" fill-opacity="1"><g transform="translate(171.194741, 187.17569)"><g><path d="M 15.5625 0 C 14.34375 -1.21875 13.980469 -2.75 13.980469 -5.320312 L 13.980469 -17.589844 C 13.980469 -22.597656 15.875 -23.996094 17.953125 -23.996094 C 19.9375 -23.996094 20.523438 -22.054688 20.523438 -19.980469 L 20.523438 -5.320312 C 20.523438 -2.75 20.160156 -1.21875 18.945312 0 L 34.054688 0 C 32.835938 -1.21875 32.472656 -2.75 32.472656 -5.320312 L 32.472656 -13.035156 L 32.429688 -21.648438 C 32.429688 -26.339844 31.300781 -32.25 24.714844 -32.25 C 17.09375 -32.25 16.148438 -25.980469 14.296875 -25.980469 C 14.117188 -25.980469 13.980469 -25.980469 13.980469 -27.0625 L 13.980469 -27.828125 C 13.980469 -30.128906 13.441406 -31.574219 11.5 -31.574219 L 0.449219 -31.574219 C 1.667969 -30.355469 2.03125 -28.820312 2.03125 -26.25 L 2.03125 -5.320312 C 2.03125 -2.75 1.667969 -1.21875 0.449219 0 Z M 15.5625 0 "/></g></g></g><g fill="#ffffff" fill-opacity="1"><g transform="translate(205.471285, 187.17569)"><g><path d="M 0.449219 -45.105469 C 1.984375 -43.886719 2.34375 -42.351562 2.34375 -39.78125 L 2.34375 -5.320312 C 2.34375 -2.75 1.984375 -1.21875 0.765625 0 L 13.621094 0 C 15.832031 0 16.824219 -2.75 16.824219 -4.554688 C 16.824219 -13.261719 4.824219 -13.351562 4.824219 -25.394531 C 4.824219 -26.25 5.414062 -26.519531 5.820312 -26.519531 C 9.5625 -26.519531 12.628906 -18.355469 19.304688 -18.355469 C 24.851562 -18.355469 27.015625 -22.914062 27.015625 -25.933594 C 27.015625 -27.378906 26.609375 -28.503906 25.890625 -28.503906 C 25.121094 -28.503906 24.671875 -26.746094 22.597656 -26.746094 C 19.078125 -26.746094 15.109375 -30.445312 10.644531 -30.445312 C 7.441406 -30.445312 6.496094 -28.777344 5.414062 -28.777344 C 4.917969 -28.777344 4.824219 -29.183594 4.824219 -29.496094 L 4.824219 -32.292969 C 4.824219 -34.007812 6.042969 -35.992188 8.207031 -35.992188 L 23.816406 -35.992188 C 29.09375 -35.992188 29.496094 -32.519531 30.941406 -32.519531 C 31.796875 -32.519531 31.976562 -33.195312 31.976562 -34.324219 L 31.976562 -45.105469 Z M 0.449219 -45.105469 "/></g></g></g><g fill="#ffffff" fill-opacity="1"><g transform="translate(238.349693, 187.17569)"><g><path d="M 3.832031 -22.550781 C 5.367188 -17.410156 6.222656 -15.019531 7.441406 -10.734375 C 8.703125 -6.222656 9.699219 0 13.394531 0 L 21.152344 0 C 22.054688 0 22.867188 0.136719 22.867188 0.945312 C 22.867188 1.941406 21.152344 4.554688 17.003906 4.554688 C 13.890625 4.554688 12.269531 2.796875 10.871094 2.796875 C 9.96875 2.796875 9.246094 5.097656 8.523438 7.351562 C 7.9375 9.15625 7.351562 10.597656 7.351562 11.546875 C 7.351562 12.808594 11.050781 14.207031 13.757812 14.207031 C 20.339844 14.207031 22.417969 8.433594 25.347656 1.398438 C 28.867188 -8.886719 33.917969 -21.46875 33.917969 -26.476562 C 33.917969 -29.40625 32.566406 -32.25 29 -32.25 C 24.3125 -32.25 18.539062 -28.957031 18.539062 -26.113281 C 18.539062 -23.816406 26.703125 -24.761719 26.703125 -13.261719 C 26.703125 -8.207031 25.03125 -2.976562 23.453125 -2.976562 C 21.242188 -2.976562 18.539062 -14.75 16.460938 -22.550781 C 15.5625 -25.980469 14.703125 -29.046875 15.785156 -31.574219 L 0 -31.574219 C 1.894531 -29.902344 2.75 -26.207031 3.832031 -22.550781 Z M 3.832031 -22.550781 "/></g></g></g><g fill="#ffffff" fill-opacity="1"><g transform="translate(273.389487, 199.900352)"><g><path d="M -0.449219 45.105469 C -1.667969 43.886719 -2.03125 42.351562 -2.03125 39.78125 L -2.03125 5.320312 C -2.03125 2.75 -1.667969 1.21875 -0.449219 0 L -19.621094 0 C -28.460938 0 -33.691406 3.472656 -33.691406 16.867188 C -33.691406 28.234375 -28.054688 45.105469 -14.296875 45.105469 Z M -17.363281 42.53125 C -21.515625 42.53125 -21.875 31.167969 -21.875 22.460938 C -21.875 9.199219 -20.523438 2.300781 -17.09375 2.300781 C -14.570312 2.300781 -13.757812 5.59375 -13.757812 13.53125 C -13.757812 14.253906 -13.757812 21.832031 -13.757812 22.550781 C -13.757812 23.273438 -13.757812 30.851562 -13.757812 31.574219 C -13.757812 39.511719 -14.570312 42.53125 -17.363281 42.53125 Z M -17.363281 42.53125 "/></g></g></g><g fill="#ffffff" fill-opacity="1"><g transform="translate(238.57175, 199.900352)"><g><path d="M -5.726562 3.96875 C -8.796875 0.855469 -12.808594 -0.675781 -16.914062 -0.675781 C -21.109375 -0.675781 -25.394531 0.992188 -28.6875 4.328125 C -35.136719 10.871094 -35.316406 21.242188 -29.046875 27.558594 C -25.980469 30.671875 -21.964844 32.203125 -17.859375 32.203125 C -13.667969 32.203125 -9.382812 30.535156 -6.089844 27.242188 C 0.40625 20.703125 0.542969 10.328125 -5.726562 3.96875 Z M -15.199219 29.8125 C -18.132812 30.265625 -21.46875 24.3125 -22.640625 16.507812 C -23.816406 8.570312 -22.417969 1.941406 -19.53125 1.488281 C -16.597656 1.039062 -13.261719 6.945312 -12.042969 14.792969 C -10.824219 22.6875 -12.222656 29.363281 -15.199219 29.8125 Z M -15.199219 29.8125 "/></g></g></g><g fill="#ffffff" fill-opacity="1"><g transform="translate(203.799111, 199.900352)"><g><path d="M -15.5625 0 C -14.34375 1.21875 -13.980469 2.75 -13.980469 5.320312 L -13.980469 17.589844 C -13.980469 22.597656 -15.875 23.996094 -17.953125 23.996094 C -19.9375 23.996094 -20.523438 22.054688 -20.523438 19.980469 L -20.523438 5.320312 C -20.523438 2.75 -20.160156 1.21875 -18.945312 0 L -34.054688 0 C -32.835938 1.21875 -32.472656 2.75 -32.472656 5.320312 L -32.472656 13.035156 L -32.429688 21.648438 C -32.429688 26.339844 -31.300781 32.25 -24.714844 32.25 C -17.09375 32.25 -16.148438 25.980469 -14.296875 25.980469 C -14.117188 25.980469 -13.980469 25.980469 -13.980469 27.0625 L -13.980469 27.828125 C -13.980469 30.128906 -13.441406 31.574219 -11.5 31.574219 L -0.449219 31.574219 C -1.667969 30.355469 -2.03125 28.820312 -2.03125 26.25 L -2.03125 5.320312 C -2.03125 2.75 -1.667969 1.21875 -0.449219 0 Z M -15.5625 0 "/></g></g></g><g fill="#ffffff" fill-opacity="1"><g transform="translate(169.522568, 199.900352)"><g><path d="M -0.449219 45.105469 C -1.984375 43.886719 -2.34375 42.351562 -2.34375 39.78125 L -2.34375 5.320312 C -2.34375 2.75 -1.984375 1.21875 -0.765625 0 L -13.621094 0 C -15.832031 0 -16.824219 2.75 -16.824219 4.554688 C -16.824219 13.261719 -4.824219 13.351562 -4.824219 25.394531 C -4.824219 26.25 -5.414062 26.519531 -5.820312 26.519531 C -9.5625 26.519531 -12.628906 18.355469 -19.304688 18.355469 C -24.851562 18.355469 -27.015625 22.914062 -27.015625 25.933594 C -27.015625 27.378906 -26.609375 28.503906 -25.890625 28.503906 C -25.121094 28.503906 -24.671875 26.746094 -22.597656 26.746094 C -19.078125 26.746094 -15.109375 30.445312 -10.644531 30.445312 C -7.441406 30.445312 -6.496094 28.777344 -5.414062 28.777344 C -4.917969 28.777344 -4.824219 29.183594 -4.824219 29.496094 L -4.824219 32.292969 C -4.824219 34.007812 -6.042969 35.992188 -8.207031 35.992188 L -23.816406 35.992188 C -29.09375 35.992188 -29.496094 32.519531 -30.941406 32.519531 C -31.796875 32.519531 -31.976562 33.195312 -31.976562 34.324219 L -31.976562 45.105469 Z M -0.449219 45.105469 "/></g></g></g><g fill="#ffffff" fill-opacity="1"><g transform="translate(136.644159, 199.900352)"><g><path d="M -3.832031 22.550781 C -5.367188 17.410156 -6.222656 15.019531 -7.441406 10.734375 C -8.703125 6.222656 -9.699219 0 -13.394531 0 L -21.152344 0 C -22.054688 0 -22.867188 -0.136719 -22.867188 -0.945312 C -22.867188 -1.941406 -21.152344 -4.554688 -17.003906 -4.554688 C -13.890625 -4.554688 -12.269531 -2.796875 -10.871094 -2.796875 C -9.96875 -2.796875 -9.246094 -5.097656 -8.523438 -7.351562 C -7.9375 -9.15625 -7.351562 -10.597656 -7.351562 -11.546875 C -7.351562 -12.808594 -11.050781 -14.207031 -13.757812 -14.207031 C -20.339844 -14.207031 -22.417969 -8.433594 -25.347656 -1.398438 C -28.867188 8.886719 -33.917969 21.46875 -33.917969 26.476562 C -33.917969 29.40625 -32.566406 32.25 -29 32.25 C -24.3125 32.25 -18.539062 28.957031 -18.539062 26.113281 C -18.539062 23.816406 -26.703125 24.761719 -26.703125 13.261719 C -26.703125 8.207031 -25.03125 2.976562 -23.453125 2.976562 C -21.242188 2.976562 -18.539062 14.75 -16.460938 22.550781 C -15.5625 25.980469 -14.703125 29.046875 -15.785156 31.574219 L 0 31.574219 C -1.894531 29.902344 -2.75 26.207031 -3.832031 22.550781 Z M -3.832031 22.550781 "/></g></g></g></svg>